<svg id="Person" xmlns="http://www.w3.org/2000/svg" width="1440" height="1440" viewBox="0 0 1080 1080"><defs><style>.cls-1{fill:#567987;}.cls-2{fill:#3d4f63;}.cls-3{fill:#2d999f;}.cls-4{opacity:0.3;}.cls-5{fill:#00001b;}.cls-6{opacity:0.5;}.cls-7{fill:#000012;}.cls-8{fill:#dbe0e6;}</style></defs><title>arms</title><g id="Arms"><g id="Left"><path class="cls-1" d="M456.5,514.5c-4,84-164,87-256,144-35.86,22.22-82.25,99.63-12.62,159.81l10.6,9.15C213,842,211,869,192,880c-9,4-19.5,7.5-28.5,1.5L160.26,879C107.62,852.2,76.58,761.51,93.5,711.5c23-68,72.75-112.06,149-139,78.71-27.81,170.32-40.78,146-77-22.47-33.47-36,31-115,54s-193-35-214-64-15-55,12-44,81.92,60.7,150,57c92-5,96-54,134-68C401.5,413.5,459.64,448.57,456.5,514.5Z"/><path d="M455,514.5a59.38,59.38,0,0,1-13.44,34.71c-8.76,10.73-20.38,18.77-32.42,25.39-14.48,8-29.92,14.1-45.46,19.66-17.36,6.22-35,11.7-52.54,17.3-35.42,11.3-71.45,22.76-103.92,41.21a99.37,99.37,0,0,0-32.71,28A116.32,116.32,0,0,0,153,724.54a89,89,0,0,0,2.84,52.35c7,18.39,19.76,32.8,34.45,45.48,5.36,4.62,10.43,8.67,13.4,15.34a34,34,0,0,1,.49,25.94,30.51,30.51,0,0,1-7.63,11.16c-4.26,3.94-9.7,6.1-15.28,7.49s-11.94,1.44-16.89-2c-1.06-.73-2-1.65-3.06-2.37-1.63-1.11-3.51-1.93-5.22-3-15.29-9.16-27.49-23-37.06-37.84a185.19,185.19,0,0,1-22.85-52.39c-4.59-17.21-7-35.3-5.31-53.1,1.69-18,9.11-35.24,17.46-51.07,18.41-34.9,47.06-62.59,81-82.3,40.34-23.39,85.92-34.75,130.19-48.12,18.29-5.53,37.16-11,54.11-20,9.14-4.84,21.31-12.77,20.25-24.71-.49-5.44-3.47-10.34-6.91-14.45-2.48-3-5.67-5.66-9.59-6.3-8.34-1.36-16.05,6.29-21.67,11.33-10.8,9.68-21.22,19.68-33.1,28.07a162.18,162.18,0,0,1-54.61,25.28c-19.14,4.68-39.2,4.71-58.67,2.34a279.11,279.11,0,0,1-59.58-14.5,315.91,315.91,0,0,1-51.17-23.31c-11.84-6.76-23.83-14.33-33.44-24.11a65.13,65.13,0,0,1-13.31-20.64c-2.88-6.95-5.73-16.85-1.46-23.86,4.13-6.79,13.22-5.19,19.47-2.85,6,2.25,11.58,5.63,17.06,8.89,15.21,9.07,30.07,18.68,45.86,26.72,18.9,9.62,39,17.3,60.06,20.47,22,3.3,45.09,1.46,66.63-4a122.9,122.9,0,0,0,42.76-19.65c9.8-7.18,18.19-15.87,26.88-24.29,7.7-7.46,16-14.54,26.11-18.44,31.34-12,67.5,1.54,85.89,28.95,10.55,15.72,14.7,34.59,13.86,53.36-.09,1.93,2.91,1.93,3,0,.87-19.43-3.54-39.11-14.57-55.32a79.34,79.34,0,0,0-38.64-30,73.34,73.34,0,0,0-47.32-.94c-10.87,3.57-19.87,10.27-28.11,18-8.75,8.25-16.92,17.11-26.48,24.46a119.48,119.48,0,0,1-42.45,20.5c-22,5.84-45.93,7.81-68.47,4.16-21.42-3.48-41.78-11.56-60.93-21.6-15.51-8.13-30.11-17.77-45.22-26.58-5.71-3.34-11.64-6.75-18-8.6-6.57-1.9-14.58-1.94-19.12,4S45,457.29,46.93,464.1a68,68,0,0,0,13.5,25c8.35,9.76,19.68,17.21,30.55,23.83a309.81,309.81,0,0,0,49.35,24,295.76,295.76,0,0,0,59.92,16.54c19.61,3.13,39.75,4,59.4.72,20.06-3.37,39.51-11.46,56.69-22.25,13.32-8.37,25.11-18.65,36.64-29.28A138.74,138.74,0,0,1,365.31,492c2.84-2.06,6.2-4.26,9.8-4.42s6.48,1.95,8.82,4.48c3.48,3.75,6.76,8.76,7,14,.64,12.21-14.42,19.59-23.58,23.92-18.74,8.86-39.05,14.46-58.86,20.33-23.59,7-47.32,13.73-70.44,22.19-38.71,14.15-75.68,34.9-103.65,65.64a199.79,199.79,0,0,0-32.23,47.94,193.91,193.91,0,0,0-10.85,27.2,97.06,97.06,0,0,0-3.84,23.45c-.9,18.16,2.06,36.52,7.2,53.89A184.76,184.76,0,0,0,119.33,843c9.94,14.42,22.46,27.62,37.92,36.12,3.05,1.68,5.61,4.12,8.85,5.49,5.32,2.25,11.2,1.9,16.67.43,5.06-1.36,10.06-3.3,14.17-6.59a32.88,32.88,0,0,0,8.63-10.62,36.86,36.86,0,0,0,2.82-25.59,34.65,34.65,0,0,0-11.4-18c-6-5.15-12-10.19-17.46-15.91a100.5,100.5,0,0,1-18.62-27c-15.22-33-5.66-71.07,16-98.83a109.16,109.16,0,0,1,15.19-16c5.81-4.94,12.35-8.8,19-12.49,16.35-9,33.63-16.31,51.13-22.79,35.39-13.12,71.93-22.87,107.34-35.93,15.32-5.66,30.56-11.94,44.7-20.16,11.81-6.87,23-15.26,31.31-26.25A62.1,62.1,0,0,0,458,514.5C458.1,512.57,455.1,512.58,455,514.5Z"/></g><g id="Right"><path class="cls-1" d="M1024,712.64c-8.87,24.15-22.85,45.58-43.53,60.86-23,17-47.57,33.88-73.68,46-11,5.14-19,15.56-32.54,13.16-11.56-2.05-21.73-6.66-24.69-16.21s2.11-20.42,7.86-28.74c6-8.66,15.62-10.8,24.89-15.06,19.94-9.17,39.45-20,55.79-34.78,19.26-17.48,31.55-40.69,33.72-66.74,2.22-26.58-8.06-51-26.44-69.94-8.27-8.55-18.49-15.61-30.27-18.12-13.91-3-28.56-.5-42.15,2.88-28.47,7.09-56.82,16.42-86.61,14.28-27.42-2-53.85-15.69-73.7-34.34C693,547.49,679.79,523,674.09,496.75c-6.45-29.78-3.45-61.1,5.46-90.05,4.32-14,9.92-27.63,14.63-41.54,4.86-14.33,8-29,10.7-43.88,5.52-30.71,7.36-61.6.6-92.29-5-22.48-19.26-45.79-10.88-69.18,3-8.31,9.11-15.28,18.24-16.45,9.84-1.25,17.84,4.37,23.19,12.17,5.5,8,8.64,17.49,11.46,26.71a269.92,269.92,0,0,1,9.38,44.49c3.92,30.49,3.81,61.54-1.6,91.84s-17.14,58.85-24.68,88.61c-3.77,14.9-6.29,30.2-6.05,45.6.13,7.76,1.82,15,3,22.66,1,7.13,1.57,14.16,3.76,21.07,7.45,23.61,26.53,42.78,50.34,49.81,13.88,4.09,28.6,3.76,42.65.71,14.2-3.08,27.66-8.91,41.52-13.16,27.37-8.41,57.1-8.66,83.7,2.78,23.9,10.27,42.71,29.53,56.55,51.17,11.73,18.32,21.48,38.4,24.63,60.07A133.3,133.3,0,0,1,1024,712.64Z"/><path d="M1022.58,712.24c-5.43,14.66-12.83,28.69-22.79,40.8-10.31,12.56-23.34,21.8-36.53,31.08a419.23,419.23,0,0,1-45.21,28.18c-6.78,3.57-13.81,6.53-20.21,10.78-5.63,3.74-11.47,8.08-18.48,8.45-6.8.37-15-2.21-20.67-5.89-6.85-4.43-9.57-11.79-8-19.76,1.48-7.66,6-16.53,12-21.67,5.55-4.8,12.89-6.86,19.48-9.78,28.23-12.53,57.11-29.57,74.6-55.78,16.14-24.18,21.79-55.47,12-83.18-9.65-27.3-33.31-53.81-63.81-55.11-17.43-.74-34.5,4.73-51.17,9.07-17.8,4.62-35.85,9-54.32,9.59-33,1.05-64.31-13.1-87.71-36.08s-36.56-54.17-39.09-86.51A180.79,180.79,0,0,1,677,422c4-17.63,10.87-34.35,16.88-51.36s10-34.5,13-52.26c3.08-18,4.9-36.3,4.31-54.59a179.8,179.8,0,0,0-8.88-51c-5.3-16-12.06-33.23-7.06-50.18,2-6.75,6-13.35,12.68-16.3,7.5-3.33,15.9-1,21.79,4.3,6.29,5.68,10,13.89,12.88,21.7a225.88,225.88,0,0,1,7.18,24.18,301.73,301.73,0,0,1,5.68,111.17c-4.93,35.91-19.48,69.18-27.59,104.31-3.85,16.68-6.38,34.33-3.89,51.4,2.33,16,3.66,32.51,11.47,47A77.39,77.39,0,0,0,806,550.81c17.61-.51,34-6.6,50.41-12.29,16.3-5.63,32.91-9.43,50.25-9.22a108.32,108.32,0,0,1,49.91,12.45c13.36,7.17,24.95,17.23,34.77,28.72,21.56,25.24,37.72,57.74,39.06,91.26a132.82,132.82,0,0,1-7.84,50.51c-.65,1.82,2.24,2.6,2.9.8A133,133,0,0,0,1021.11,612c-13-28.21-32.86-55.46-60.15-71.22-29.37-17-65-17.92-96.82-8-17.35,5.43-34.14,13-52.43,14.67-17.07,1.57-34.14-1.92-48.57-11.34a75.72,75.72,0,0,1-27.74-32.78c-3.63-8.3-4.9-16.89-6.11-25.8C728,468.4,726,459.43,726,450.14c.16-37.56,16-72.69,25.53-108.41,9.7-36.19,11.63-73.86,7.3-111a279,279,0,0,0-11.37-53.49C743.29,164.21,737.1,148,723,143c-13.33-4.78-25.43,4-29.89,16.42-5.64,15.65-1,32.12,4,47.25,2.79,8.39,5.68,16.72,7.45,25.4a187.47,187.47,0,0,1,3.52,29c.86,19.36-1,38.75-4.33,57.81a320.38,320.38,0,0,1-13.7,53.44c-6.38,17.77-13.29,35.3-17.07,53.87-6.78,33.35-5.06,68.71,9.31,99.9a134.39,134.39,0,0,0,65.15,65.3,112.86,112.86,0,0,0,45.45,10.68c18.31.33,36.39-3.38,54.07-7.82,17.89-4.49,36.07-10.91,54.7-11,18.14,0,32.93,8.24,44.94,21.44,10.75,11.81,18.72,26.15,22.14,41.81,3.36,15.42,2,31.58-2.88,46.53-10.5,32.19-37.13,53.8-66,69.29a250.83,250.83,0,0,1-23.69,11.33c-6.1,2.48-12.42,5-17.11,9.77-9,9.12-16.5,26.75-8.48,38.52,3.55,5.21,9.36,8.28,15.21,10.19,6.29,2.05,13,3.31,19.46,1.28,6.09-1.93,11.16-6,16.48-9.35,7.07-4.48,15-7.62,22.33-11.65A457,457,0,0,0,970,783c13-9.28,25.09-18.75,34.84-31.52A148,148,0,0,0,1025.48,713C1026.15,711.23,1023.25,710.44,1022.58,712.24Z"/></g><path class="cls-2" d="M273.5,549.5c79-23,92.53-87.47,115-54,4.05,6,4.87,11.41,3.09,16.32,10.07-7.7,13.2-16.47,5.91-27.32-22.47-33.47-36,31-115,54s-193-35-214-64C58.74,461,54.82,448.2,56.12,439.43c-12.93,3.39-12.72,23.84,3.38,46.07C80.5,514.5,194.5,572.5,273.5,549.5Z"/><path class="cls-2" d="M209.5,647.5c-9.13,5.66-18.94,14.9-27.35,26.52A91.15,91.15,0,0,1,200.5,658.5C279.93,609.29,410,600.33,446.69,544.74,401.1,590.78,283.38,601.73,209.5,647.5Z"/><path class="cls-2" d="M201,869c-9,4-19.5,7.5-28.5,1.5L169.26,868C116.62,841.2,85.58,750.51,102.5,700.5a205.21,205.21,0,0,1,30.91-58.93c-17.48,19.84-30.8,43-39.91,69.93-16.92,50,14.12,140.7,66.76,167.49l3.24,2.51c9,6,19.5,2.5,28.5-1.5a31.31,31.31,0,0,0,12.43-13.3A30.61,30.61,0,0,1,201,869Z"/><g id="Left-2" data-name="Left"><path d="M455,514.5a59.38,59.38,0,0,1-13.44,34.71c-8.76,10.73-20.38,18.77-32.42,25.39-14.48,8-29.92,14.1-45.46,19.66-17.36,6.22-35,11.7-52.54,17.3-35.42,11.3-71.45,22.76-103.92,41.21a99.37,99.37,0,0,0-32.71,28A116.32,116.32,0,0,0,153,724.54a89,89,0,0,0,2.84,52.35c7,18.39,19.76,32.8,34.45,45.48,5.36,4.62,10.43,8.67,13.4,15.34a34,34,0,0,1,.49,25.94,30.51,30.51,0,0,1-7.63,11.16c-4.26,3.94-9.7,6.1-15.28,7.49s-11.94,1.44-16.89-2c-1.06-.73-2-1.65-3.06-2.37-1.63-1.11-3.51-1.93-5.22-3-15.29-9.16-27.49-23-37.06-37.84a185.19,185.19,0,0,1-22.85-52.39c-4.59-17.21-7-35.3-5.31-53.1,1.69-18,9.11-35.24,17.46-51.07,18.41-34.9,47.06-62.59,81-82.3,40.34-23.39,85.92-34.75,130.19-48.12,18.29-5.53,37.16-11,54.11-20,9.14-4.84,21.31-12.77,20.25-24.71-.49-5.44-3.47-10.34-6.91-14.45-2.48-3-5.67-5.66-9.59-6.3-8.34-1.36-16.05,6.29-21.67,11.33-10.8,9.68-21.22,19.68-33.1,28.07a162.18,162.18,0,0,1-54.61,25.28c-19.14,4.68-39.2,4.71-58.67,2.34a279.11,279.11,0,0,1-59.58-14.5,315.91,315.91,0,0,1-51.17-23.31c-11.84-6.76-23.83-14.33-33.44-24.11a65.13,65.13,0,0,1-13.31-20.64c-2.88-6.95-5.73-16.85-1.46-23.86,4.13-6.79,13.22-5.19,19.47-2.85,6,2.25,11.58,5.63,17.06,8.89,15.21,9.07,30.07,18.68,45.86,26.72,18.9,9.62,39,17.3,60.06,20.47,22,3.3,45.09,1.46,66.63-4a122.9,122.9,0,0,0,42.76-19.65c9.8-7.18,18.19-15.87,26.88-24.29,7.7-7.46,16-14.54,26.11-18.44,31.34-12,67.5,1.54,85.89,28.95,10.55,15.72,14.7,34.59,13.86,53.36-.09,1.93,2.91,1.93,3,0,.87-19.43-3.54-39.11-14.57-55.32a79.34,79.34,0,0,0-38.64-30,73.34,73.34,0,0,0-47.32-.94c-10.87,3.57-19.87,10.27-28.11,18-8.75,8.25-16.92,17.11-26.48,24.46a119.48,119.48,0,0,1-42.45,20.5c-22,5.84-45.93,7.81-68.47,4.16-21.42-3.48-41.78-11.56-60.93-21.6-15.51-8.13-30.11-17.77-45.22-26.58-5.71-3.34-11.64-6.75-18-8.6-6.57-1.9-14.58-1.94-19.12,4S45,457.29,46.93,464.1a68,68,0,0,0,13.5,25c8.35,9.76,19.68,17.21,30.55,23.83a309.81,309.81,0,0,0,49.35,24,295.76,295.76,0,0,0,59.92,16.54c19.61,3.13,39.75,4,59.4.72,20.06-3.37,39.51-11.46,56.69-22.25,13.32-8.37,25.11-18.65,36.64-29.28A138.74,138.74,0,0,1,365.31,492c2.84-2.06,6.2-4.26,9.8-4.42s6.48,1.95,8.82,4.48c3.48,3.75,6.76,8.76,7,14,.64,12.21-14.42,19.59-23.58,23.92-18.74,8.86-39.05,14.46-58.86,20.33-23.59,7-47.32,13.73-70.44,22.19-38.71,14.15-75.68,34.9-103.65,65.64a199.79,199.79,0,0,0-32.23,47.94,193.91,193.91,0,0,0-10.85,27.2,97.06,97.06,0,0,0-3.84,23.45c-.9,18.16,2.06,36.52,7.2,53.89A184.76,184.76,0,0,0,119.33,843c9.94,14.42,22.46,27.62,37.92,36.12,3.05,1.68,5.61,4.12,8.85,5.49,5.32,2.25,11.2,1.9,16.67.43,5.06-1.36,10.06-3.3,14.17-6.59a32.88,32.88,0,0,0,8.63-10.62,36.86,36.86,0,0,0,2.82-25.59,34.65,34.65,0,0,0-11.4-18c-6-5.15-12-10.19-17.46-15.91a100.5,100.5,0,0,1-18.62-27c-15.22-33-5.66-71.07,16-98.83a109.16,109.16,0,0,1,15.19-16c5.81-4.94,12.35-8.8,19-12.49,16.35-9,33.63-16.31,51.13-22.79,35.39-13.12,71.93-22.87,107.34-35.93,15.32-5.66,30.56-11.94,44.7-20.16,11.81-6.87,23-15.26,31.31-26.25A62.1,62.1,0,0,0,458,514.5C458.1,512.57,455.1,512.58,455,514.5Z"/></g><path class="cls-2" d="M750.2,341c-4.77,15.89-10.12,31.62-14.42,47.65C740.56,372.74,745.92,357,750.2,341Z"/><path class="cls-2" d="M704.88,321.28c-1.61,8.93-3.4,17.78-5.62,26.53a314.62,314.62,0,0,0,9.62-40.53c5.52-30.71,7.36-61.6.6-92.29-4.24-19.25-15.33-39.11-13.17-59.1a31.82,31.82,0,0,0-1.71,3.92c-8.38,23.39,5.93,46.7,10.88,69.18C712.24,259.68,710.4,290.57,704.88,321.28Z"/><path class="cls-2" d="M915.14,583.12c11.78,2.51,22,9.57,30.27,18.12,18.38,19,28.66,43.36,26.44,69.94a96.76,96.76,0,0,1-1.7,11.74,98,98,0,0,0,5.7-25.74c2.22-26.58-8.06-51-26.44-69.94-8.27-8.55-18.49-15.61-30.27-18.12-13.91-3-28.56-.5-42.15,2.88-28.47,7.09-56.82,16.42-86.61,14.28-27.42-2-53.85-15.69-73.7-34.34C697,533.49,683.79,509,678.09,482.75c-5.62-25.94-4.06-53.05,2.32-78.74-.29.89-.58,1.79-.86,2.69-8.91,28.95-11.91,60.27-5.46,90.05,5.7,26.29,18.94,50.74,38.59,69.19,19.85,18.65,46.28,32.37,73.7,34.34,29.79,2.14,58.14-7.19,86.61-14.28C886.58,582.62,901.23,580.16,915.14,583.12Z"/><path class="cls-2" d="M1028,698.64c-8.87,24.15-22.85,45.58-43.53,60.86-23,17-47.57,33.88-73.68,46-11,5.14-19,15.56-32.54,13.16-11.56-2.05-21.73-6.66-24.69-16.21a20.65,20.65,0,0,1-.86-6.84c-3.33,6.66-5.26,14-3.14,20.84,3,9.55,13.13,14.16,24.69,16.21,13.56,2.4,21.52-8,32.54-13.16,26.11-12.17,50.7-29.07,73.68-46,20.68-15.28,34.66-36.71,43.53-60.86a128.91,128.91,0,0,0,4.74-16.12C1028.52,697.23,1028.29,697.94,1028,698.64Z"/><g id="Right-2" data-name="Right"><path d="M1022.58,712.24c-5.43,14.66-12.83,28.69-22.79,40.8-10.31,12.56-23.34,21.8-36.53,31.08a419.23,419.23,0,0,1-45.21,28.18c-6.78,3.57-13.81,6.53-20.21,10.78-5.63,3.74-11.47,8.08-18.48,8.45-6.8.37-15-2.21-20.67-5.89-6.85-4.43-9.57-11.79-8-19.76,1.48-7.66,6-16.53,12-21.67,5.55-4.8,12.89-6.86,19.48-9.78,28.23-12.53,57.11-29.57,74.6-55.78,16.14-24.18,21.79-55.47,12-83.18-9.65-27.3-33.31-53.81-63.81-55.11-17.43-.74-34.5,4.73-51.17,9.07-17.8,4.62-35.85,9-54.32,9.59-33,1.05-64.31-13.1-87.71-36.08s-36.56-54.17-39.09-86.51A180.79,180.79,0,0,1,677,422c4-17.63,10.87-34.35,16.88-51.36s10-34.5,13-52.26c3.08-18,4.9-36.3,4.31-54.59a179.8,179.8,0,0,0-8.88-51c-5.3-16-12.06-33.23-7.06-50.18,2-6.75,6-13.35,12.68-16.3,7.5-3.33,15.9-1,21.79,4.3,6.29,5.68,10,13.89,12.88,21.7a225.88,225.88,0,0,1,7.18,24.18,301.73,301.73,0,0,1,5.68,111.17c-4.93,35.91-19.48,69.18-27.59,104.31-3.85,16.68-6.38,34.33-3.89,51.4,2.33,16,3.66,32.51,11.47,47A77.39,77.39,0,0,0,806,550.81c17.61-.51,34-6.6,50.41-12.29,16.3-5.63,32.91-9.43,50.25-9.22a108.32,108.32,0,0,1,49.91,12.45c13.36,7.17,24.95,17.23,34.77,28.72,21.56,25.24,37.72,57.74,39.06,91.26a132.82,132.82,0,0,1-7.84,50.51c-.65,1.82,2.24,2.6,2.9.8A133,133,0,0,0,1021.11,612c-13-28.21-32.86-55.46-60.15-71.22-29.37-17-65-17.92-96.82-8-17.35,5.43-34.14,13-52.43,14.67-17.07,1.57-34.14-1.92-48.57-11.34a75.72,75.72,0,0,1-27.74-32.78c-3.63-8.3-4.9-16.89-6.11-25.8C728,468.4,726,459.43,726,450.14c.16-37.56,16-72.69,25.53-108.41,9.7-36.19,11.63-73.86,7.3-111a279,279,0,0,0-11.37-53.49C743.29,164.21,737.1,148,723,143c-13.33-4.78-25.43,4-29.89,16.42-5.64,15.65-1,32.12,4,47.25,2.79,8.39,5.68,16.72,7.45,25.4a187.47,187.47,0,0,1,3.52,29c.86,19.36-1,38.75-4.33,57.81a320.38,320.38,0,0,1-13.7,53.44c-6.38,17.77-13.29,35.3-17.07,53.87-6.78,33.35-5.06,68.71,9.31,99.9a134.39,134.39,0,0,0,65.15,65.3,112.86,112.86,0,0,0,45.45,10.68c18.31.33,36.39-3.38,54.07-7.82,17.89-4.49,36.07-10.91,54.7-11,18.14,0,32.93,8.24,44.94,21.44,10.75,11.81,18.72,26.15,22.14,41.81,3.36,15.42,2,31.58-2.88,46.53-10.5,32.19-37.13,53.8-66,69.29a250.83,250.83,0,0,1-23.69,11.33c-6.1,2.48-12.42,5-17.11,9.77-9,9.12-16.5,26.75-8.48,38.52,3.55,5.21,9.36,8.28,15.21,10.19,6.29,2.05,13,3.31,19.46,1.28,6.09-1.93,11.16-6,16.48-9.35,7.07-4.48,15-7.62,22.33-11.65A457,457,0,0,0,970,783c13-9.28,25.09-18.75,34.84-31.52A148,148,0,0,0,1025.48,713C1026.15,711.23,1023.25,710.44,1022.58,712.24Z"/></g></g><path class="cls-3" d="M927.79,883.12c-3.17,4.25-9.46,5.11-14.49,3.44a23.17,23.17,0,0,1-5.19-2.55l-.8,2.15c-3.16,13.24-14.35,23.67-27.2,28.17-10.45,3.67-21.82,3.82-32.77,1.85V918a136.17,136.17,0,0,1-52.51,54.13h-.66a538.65,538.65,0,0,1,7.09,70.9c.52,14.51,1.07,28.42-1.43,40.92L268,1082.48c-6.32-8.24-9.08-19-12.49-29.91a311.29,311.29,0,0,1-8.8-35.08h-1.43c-36.09-9.72-66.45-38.51-78.07-74l-1.85-1.85c-4.52,1.54-9.24,2.82-14,2.62s-9.68-2.06-12.61-5.84c-3.07-4-7.22-15.89,3.68-28.08,11.94-13.34,43.15-79.46,48.58-99.2,2.12-7.7,7.27-15.46,14.94-17.69,8.77-2.54,17.76,4.61,20.85,13.31l.83-.43a173.81,173.81,0,0,1,58.21,36.53l.13-.13a90,90,0,0,1,43.78-46.51c14.48-7,31.67-8.75,47.54-8.37A255.53,255.53,0,0,1,431,795c11,2.67,125.41-1.31,131.5-3.5,17.7-6.37,20.69-8.13,39.09-12.07,34.56-7.39,74.14-10.94,106.91,5.07a115.54,115.54,0,0,1,25.06,16.89l1.08.12a132.3,132.3,0,0,1,88.26-19.8l2.88-1.1a57.16,57.16,0,0,1-.84-7.82,26.19,26.19,0,0,1,1.68-11.42c1.55-3.55,4.55-6.64,8.33-7.51s7.71.55,10.76,2.87a34.51,34.51,0,0,1,7.63,8.57c8.69,13.13,58.49,77.47,71.28,97.13a33.39,33.39,0,0,1,4.79,10C930.3,876.06,930,880.14,927.79,883.12Z"/><g id="Shadows" class="cls-4"><path class="cls-5" d="M224.5,898.5s-31,38-58,43c13,37,36.67,65.58,79,76L244,997c2,20-11.34,8.79-13.44,7.35C179,969,188.35,942.89,224.5,898.5Z"/><path class="cls-5" d="M156.11,888.61C139.1,912.76,135,916,135.32,927a.22.22,0,0,1,0,.08c-3.16,28.06,60.66,26.06,100.07-49.77a.75.75,0,0,0-1.26-.8C165,966.4,122.78,932,156.11,888.61Z"/><path d="M227.21,807.65a56.3,56.3,0,0,1-4.75,29.07,1.5,1.5,0,0,0,2.59,1.51A40.49,40.49,0,0,0,230.66,807c-.43-1.88-3.32-1.09-2.89.8a37.5,37.5,0,0,1-5.31,28.91l2.59,1.51a59.26,59.26,0,0,0,5.16-30.58c-.19-1.91-3.19-1.93-3,0Z"/><path class="cls-5" d="M244,997s10,68,23,85c12,15.73,11.22,2.36,11,.26a.56.56,0,0,0-.25-.4c-6.73-4.49-18-40.27-34.53-98a.56.56,0,0,0-1.09.24Z"/><path d="M736.44,803.56a106.11,106.11,0,0,1,14.16,15.27,137.76,137.76,0,0,1,11.6,17.43c.95,1.68,3.54.17,2.6-1.52A144.42,144.42,0,0,0,753,817.05a107.25,107.25,0,0,0-14.43-15.61c-1.45-1.26-3.58.85-2.12,2.12Z"/><path class="cls-5" d="M790.5,951.5c2.19,10.44,24.32,2,35.18-12.44C837,924,840,917,802,899c15.67,7.47,31,14,45.5,17.5,0,0-20,41-53,56Z"/><path class="cls-5" d="M791.48,892.14C809.25,902.72,889.76,946.57,908,884l-8-6c7,8-1.56,16.58-3.92,18.47-32.08,25.53-89.15-.33-104.34-5.22C791,891,790,891,791.48,892.14Z"/><path d="M899.73,877.62C909.29,886.45,919,891.2,929,883c-11.65,3.58-18.89-1.27-28.6-6.33A.59.59,0,0,0,899.73,877.62Z"/><path d="M820.87,781.46c4.44,11.14,9.34,20.42,15.63,24-5-5-8.25-13.88-11-24Z"/><path d="M899.39,878.92A13.52,13.52,0,0,1,898,895.79c-1.34,1.4.78,3.52,2.12,2.13A16.57,16.57,0,0,0,902,877.4c-1.06-1.6-3.66-.1-2.59,1.52Z"/><path d="M789.74,893.8c9.28,4.91,18.47,10,27.74,14.89,4.27,2.27,8.71,4.53,11.89,8.28A13.49,13.49,0,0,1,832,929.69c-1.5,5.34-5.28,9.6-8.88,13.66-1.27,1.44.84,3.57,2.12,2.12,3.45-3.89,6.93-7.88,8.89-12.76a17.06,17.06,0,0,0-.31-14.45c-2.31-4.41-6.47-7.49-10.7-9.91-4.87-2.79-9.91-5.32-14.84-8-5.68-3.06-11.35-6.14-17-9.16-1.71-.9-3.23,1.69-1.52,2.6Z"/><path class="cls-5" d="M382,788c33,57,155,73,208-5-104.45,64-187.68,5.63-187.68,5.63Z"/></g><g id="Detail" class="cls-6"><path class="cls-7" d="M391,797.91c7.16-2.15,14.21-4.6,21.68-5.44a1.54,1.54,0,0,0,1.5-1.5,1.5,1.5,0,0,0-1.5-1.5c-7.76.87-15,3.31-22.47,5.55-1.85.55-1.06,3.45.79,2.89Z"/><path class="cls-7" d="M397.11,808.43c7.57-4.67,14-10.95,21.83-15.27,1.68-.93.17-3.52-1.52-2.59-7.81,4.32-14.26,10.6-21.83,15.27-1.64,1-.13,3.61,1.52,2.59Z"/><path class="cls-7" d="M408.93,821.9c8.25-5.53,16.48-12.45,21.46-21.19a1.5,1.5,0,0,0-2.59-1.51,49.52,49.52,0,0,1-9.22,11.24,85.87,85.87,0,0,1-11.16,8.87c-1.6,1.07-.1,3.67,1.51,2.59Z"/><path class="cls-7" d="M432,835.14a58.76,58.76,0,0,0,13.46-27.75c.33-1.88-2.56-2.69-2.9-.79A55.91,55.91,0,0,1,429.85,833c-1.27,1.44.85,3.57,2.12,2.12Z"/><path class="cls-7" d="M454.34,841.74a88.15,88.15,0,0,0,8.22-30.27c.16-1.92-2.84-1.91-3,0a83.92,83.92,0,0,1-7.81,28.75c-.82,1.74,1.76,3.26,2.59,1.52Z"/><path class="cls-7" d="M477.76,847.07a109.83,109.83,0,0,0,3.72-38.44c-.15-1.91-3.15-1.92-3,0a107.42,107.42,0,0,1-3.61,37.64,1.5,1.5,0,0,0,2.89.8Z"/><path class="cls-7" d="M504.64,846.7a290.74,290.74,0,0,1-4.43-41.63c-.07-1.92-3.07-1.93-3,0a296.2,296.2,0,0,0,4.54,42.43c.34,1.9,3.23,1.09,2.89-.8Z"/><path class="cls-7" d="M530.16,841.94a70.05,70.05,0,0,1-7.54-39.14c.19-1.92-2.81-1.91-3,0a72.87,72.87,0,0,0,8,40.66c.89,1.71,3.48.19,2.59-1.52Z"/><path class="cls-7" d="M550.68,834.14a59.92,59.92,0,0,1-9.06-34.21c.08-1.93-2.92-1.93-3,0a62.76,62.76,0,0,0,9.47,35.72c1,1.64,3.62.13,2.59-1.51Z"/><path class="cls-7" d="M569.32,824.94c-7.21-8.4-11.13-19.4-14.17-29.88a1.5,1.5,0,0,0-2.89.8c3.19,11,7.37,22.39,14.94,31.2,1.25,1.46,3.37-.67,2.12-2.12Z"/><path class="cls-7" d="M583.87,812.36c-7.44-6.58-12.58-15.05-19.1-22.45-1.28-1.45-3.4.68-2.12,2.12,6.52,7.4,11.65,15.87,19.1,22.45,1.44,1.28,3.57-.84,2.12-2.12Z"/><path class="cls-7" d="M599.69,785a23.22,23.22,0,0,1-11.59-.24,29.91,29.91,0,0,0-12.06-.65c-1.9.32-1.09,3.21.8,2.89,4-.69,7.69,0,11.59.91a25,25,0,0,0,12.06,0,1.51,1.51,0,0,0-.8-2.9Z"/><path class="cls-7" d="M388,788.5c-.6,9.16,3.81,17.24,9.42,24.15,5.83,7.18,13.64,12.54,21.56,17.16a145.46,145.46,0,0,0,49.7,17.72,151.14,151.14,0,0,0,52.56-.73,142.11,142.11,0,0,0,49.4-19.45c15-9.56,28.62-23.12,31.63-41.34a64.48,64.48,0,0,0,.73-6.51c.12-1.93-2.88-1.92-3,0A47.74,47.74,0,0,1,592.49,803c-4.9,7.48-11.68,13.69-18.94,18.83a136.12,136.12,0,0,1-47,20.81,147.55,147.55,0,0,1-50.7,2.91,143.26,143.26,0,0,1-48.58-14.62c-7.76-4-15.48-8.55-22-14.41C399,810.9,393.11,803.36,391.39,795a24,24,0,0,1-.39-6.5c.13-1.93-2.87-1.92-3,0Z"/><path class="cls-7" d="M595,799.4c-4.23-.87-7.71-3.22-11.19-5.67-3.24-2.28-6.63-4.52-10.64-5.1a1.54,1.54,0,0,0-1.84,1,1.51,1.51,0,0,0,1,1.85c4,.58,7.2,2.88,10.41,5.14,3.51,2.47,7.15,4.75,11.42,5.64,1.89.39,2.69-2.5.8-2.9Z"/></g><g id="Torso"><path d="M165.74,943.86a114.38,114.38,0,0,0,21.63,38.26,118.05,118.05,0,0,0,34.25,27.6,112.22,112.22,0,0,0,23.24,9.22,1.5,1.5,0,0,0,.8-2.89A111.34,111.34,0,0,1,207.34,997a115.06,115.06,0,0,1-28.58-31.9,108.35,108.35,0,0,1-10.12-22c-.6-1.83-3.5-1-2.9.8Z"/><path d="M225.11,838.17c4.22-13.32,8.59-30-2.79-41.07-4.22-4.13-10.18-6.68-16.11-5.3s-10.78,6.23-13.69,11.53c-2.06,3.75-3,7.86-4.39,11.87-1.17,3.44-2.47,6.84-3.82,10.21-3.53,8.85-7.4,17.56-11.4,26.2q-6.53,14.1-13.66,27.91c-4,7.66-8.08,15.29-12.73,22.56a61.64,61.64,0,0,1-4.8,6.74c-4.13,4.82-7.29,10.14-7.83,16.59A21.4,21.4,0,0,0,136.67,938c3.08,5.1,9.13,7.52,14.89,7.71,7.31.23,14.61-2.6,21.27-5.34A124.23,124.23,0,0,0,221,905.1q3.12-3.75,5.94-7.72c1.12-1.58-1.48-3.08-2.59-1.52a120.72,120.72,0,0,1-61.19,44.88c-6.36,2-13.69,3.33-19.77-.24-3.68-2.16-5.55-5.8-6.3-9.89a21.67,21.67,0,0,1,3.61-15.68c1.94-3,4.47-5.52,6.48-8.45a207.58,207.58,0,0,0,11.53-19.56c4.6-8.56,8.94-17.26,13.12-26s8.16-17.5,11.93-26.39c2.85-6.73,5.69-13.53,7.9-20.5,1.44-4.53,2.77-8.91,5.75-12.74,3.43-4.4,8.84-7.83,14.62-6.62s10.18,5.72,12.59,10.82c3.06,6.47,2.26,14.22.7,21-.85,3.7-2,7.32-3.13,10.93-.58,1.85,2.31,2.64,2.9.8Z"/><path d="M227.2,807.74A173,173,0,0,1,291.86,851a170.41,170.41,0,0,1,14.06,17.09c1.12,1.55,3.72,0,2.59-1.52A174.7,174.7,0,0,0,228,804.85c-1.81-.68-2.59,2.22-.8,2.89Z"/><path d="M287.39,843.1c9.07-21.91,27.62-40.66,50.18-48.52,12.7-4.43,26.31-5.55,39.69-5.26,14,.31,28.13,1,42,3.55,5.43,1,10.6,2.43,16.11,2.76,5,.3,10,.38,15,.45,14.78.19,29.55,0,44.33-.21,14.93-.24,29.86-.6,44.78-1.21,5.21-.21,10.42-.44,15.62-.81a37.79,37.79,0,0,0,7.74-.89c5.11-1.47,10.07-3.71,15.08-5.49,4.18-1.49,8.4-2.82,12.69-3.94a293.25,293.25,0,0,1,36.83-7.07c25.27-3.21,52-2.85,75.79,7.27,19.22,8.18,35.24,22.49,48.24,38.59a179.5,179.5,0,0,1,20.85,32.13c.3.6.6,1.2.88,1.81.81,1.75,3.4.23,2.6-1.52a158.83,158.83,0,0,0-14.5-24.32c-11.29-16-25-30.76-41.66-41.38-21.29-13.59-46.48-18-71.42-17.27a248.87,248.87,0,0,0-38.29,4.46,215.84,215.84,0,0,0-31.72,8c-5.1,1.79-10.15,3.72-15.24,5.55a13,13,0,0,1-3.13.71c-4.11.45-8.26.64-12.38.85-14.26.72-28.55,1.09-42.82,1.39-15.56.32-31.12.53-46.68.45-6,0-11.94-.08-17.9-.3a65.58,65.58,0,0,1-9.86-.72,261.59,261.59,0,0,0-39.13-5.3c-13.56-.71-27.2-1.05-40.63,1.34-24,4.27-44.9,18.84-58.13,39.18a92.14,92.14,0,0,0-7.82,15c-.73,1.78,2.17,2.56,2.9.8Z"/><path d="M737.4,802.81a130.51,130.51,0,0,1,87.5-19.6c.81.11,1.49-.76,1.5-1.5a1.54,1.54,0,0,0-1.5-1.5,134.14,134.14,0,0,0-71,10.31,129.44,129.44,0,0,0-18.05,9.7c-1.62,1-.12,3.63,1.51,2.59Z"/><path d="M837.84,804.59a57.17,57.17,0,0,1-10-21.19,53.89,53.89,0,0,1-1.47-11.73c-.06-3.94.39-8.07,2.51-11.48a10,10,0,0,1,8.24-5.08c3.91,0,7.38,2.24,10,4.94a86.1,86.1,0,0,1,7.62,9.81l8,11,18.09,24.81c1.12,1.55,3.73.05,2.59-1.51l-17.51-24-8.61-11.81c-2.61-3.59-5.1-7.41-8.24-10.57a18,18,0,0,0-10.57-5.59,12.22,12.22,0,0,0-10.22,3.87c-5.93,6.19-5.46,15.87-4.24,23.73a59.27,59.27,0,0,0,11.12,26.32c1.15,1.52,3.75,0,2.59-1.52Z"/><path d="M879.53,803.68a455.15,455.15,0,0,1,31.62,40.82c4.87,7.09,9.78,14.27,14,21.76,1.93,3.41,3.51,7.16,3.16,11.16a8.82,8.82,0,0,1-5.67,7.68c-8.25,3.09-15.68-3.37-21.34-8.52-1.42-1.3-3.55.82-2.12,2.12,5.75,5.24,12.49,11,20.84,10A12.76,12.76,0,0,0,929,884c2.43-3.23,2.82-7.53,2-11.39-.91-4.36-3.37-8.22-5.68-11.95q-3.73-6-7.66-11.93-7.73-11.6-16.14-22.73-9.51-12.57-19.86-24.47c-1.27-1.46-3.38.67-2.12,2.12Z"/><path d="M801.48,900.12c15.91,7.91,32.18,15.93,50,18.2a65.34,65.34,0,0,0,25.78-1.52,48.53,48.53,0,0,0,19.6-11C903,900.23,908,893,910,884.9c.46-1.88-2.44-2.68-2.9-.8-3.33,13.56-15.35,24.89-28.41,29.15-16.13,5.26-33.54,2.15-49.07-3.63A276.09,276.09,0,0,1,803,897.53c-1.73-.85-3.25,1.73-1.52,2.59Z"/><path d="M786.05,939.9c8.9,37,13,74.8,14,112.81.27,10.29.27,20.68-1.7,30.82l1.45-1.1-14.28,0-38.67-.1-57.14-.16-70-.19-76.38-.21-77.1-.21-72.15-.19-60.76-.17-43.71-.12L276,1081c-2.34,0-4.8-.22-7.13,0-.29,0-.6,0-.89,0l1.3.75c-4.09-5.47-6.66-11.75-8.79-18.19-2.3-7-4.46-14-6.43-21.08a311.82,311.82,0,0,1-9-45c-.24-1.89-3.24-1.91-3,0a315.66,315.66,0,0,0,7.2,38.6c3,12,6.36,24.48,11.17,36a59.56,59.56,0,0,0,3.45,7c.91,1.55,2.17,4.55,4.1,4.93a2.62,2.62,0,0,0,.28,0,14.71,14.71,0,0,0,2.1,0l27.24.07,51.71.14,69.1.19,79.63.22,82.75.22,78.42.22,67.22.18,49,.13c7.79,0,15.58.13,23.37.07h1a1.51,1.51,0,0,0,1.44-1.1c3.5-18,1.91-37.11.83-55.32a535.27,535.27,0,0,0-6.46-57.17q-2.77-16.47-6.69-32.74c-.45-1.88-3.35-1.08-2.9.8Z"/><path d="M795.58,973.41a138.39,138.39,0,0,0,44.21-40.29,133.26,133.26,0,0,0,8.84-14.38c.91-1.7-1.68-3.22-2.59-1.52a134.08,134.08,0,0,1-52,53.59,1.5,1.5,0,0,0,1.51,2.6Z"/></g><g id="Head"><path class="cls-1" d="M602,746.55c-3.07,30-23.32,51.73-49.45,66-4.07,4.92-21.39,13-30.07,12.92-3.34,1-4.33.76-7.64,1.45-10.36,4.55-33.36,4.55-45.88-.37-2.15-.4-4.34-.84-6.59-1.34-8.89,1.26-23.23-3.52-26.89-7.74a45.36,45.36,0,0,1-8.31-3.75c-38-21.91-55-82.7-21.12-123,29.49-35.16,60.09-39.64,95.82-41.77,19.81-1.18,40.37.67,58,9.79C590.7,674.66,605.5,712.5,602,746.55Z"/><path d="M600.52,746.55a72,72,0,0,1-9.79,29.37,88.55,88.55,0,0,1-20.27,23,115.62,115.62,0,0,1-13.16,9.24c-1.06.65-2.13,1.28-3.2,1.89a11.8,11.8,0,0,0-2.93,1.9,19.62,19.62,0,0,1-3.9,3.07,65.11,65.11,0,0,1-12.64,6.23,55.58,55.58,0,0,1-6.46,2,38.64,38.64,0,0,1-5.67.77c-1.3.12-2.61.67-3.92.86a28.48,28.48,0,0,0-4.12.64c-1.85.58-3.59,1.31-5.5,1.76a68.39,68.39,0,0,1-14.42,1.55,84.93,84.93,0,0,1-15.36-1.1,56,56,0,0,1-7-1.61c-1.08-.33-2.15-.8-3.25-1.05-1.71-.4-3.45-.68-5.17-1a12.82,12.82,0,0,0-3.5-.08,31.24,31.24,0,0,1-4-.13,43.45,43.45,0,0,1-7.33-1.38c-4-1.07-8.74-2.53-11.83-5.42a6.33,6.33,0,0,0-.84-.8,11,11,0,0,0-2-.75,42.91,42.91,0,0,1-3.94-1.7,57.58,57.58,0,0,1-6.28-3.72,69.46,69.46,0,0,1-10.38-8.59c-13.08-13.08-21.35-30.93-23.65-49.24-2.42-19.37,1.91-39.21,13.16-55.28a106.75,106.75,0,0,1,11.62-13.59,111.29,111.29,0,0,1,12.83-11.23,97.4,97.4,0,0,1,26.78-14.05,137.41,137.41,0,0,1,28.38-6,237.17,237.17,0,0,1,33.26-1.85c12.76.31,25.62,2.3,37.46,7.23a70.35,70.35,0,0,1,25.56,18.24c13.61,15.28,20.83,35.83,21.83,56.11a100.18,100.18,0,0,1-.38,14.8c-.19,1.92,2.81,1.91,3,0,2.1-20.95-2.44-42.9-13.41-60.95a78.41,78.41,0,0,0-20.79-22.82c-10-7.24-21.87-11.56-34-13.72-12.6-2.26-25.35-2.19-38.08-1.33a218.86,218.86,0,0,0-30.19,3.77,102.9,102.9,0,0,0-55.31,30.61c-7.8,8-14.55,16.93-19,27.29a81.6,81.6,0,0,0-6.43,29.18,89.84,89.84,0,0,0,16.43,54.63,77.71,77.71,0,0,0,19.83,19.5,57.5,57.5,0,0,0,6.66,3.88c1.18.56,2.38,1.06,3.6,1.54l.94.36c-.06,0,1.17.52.7.21a11.91,11.91,0,0,1,.91.84c3.54,2.94,8.28,4.59,12.66,5.77a48.93,48.93,0,0,0,7.78,1.46,35.12,35.12,0,0,0,3.7.18,16.82,16.82,0,0,1,3.82,0c1.69.36,3.5.53,5.15,1,1.14.33,2.24.81,3.39,1.14a58.92,58.92,0,0,0,7.09,1.55c10.07,1.6,20.88,1.74,30.85-.6,1-.24,2-.51,3-.83a24.22,24.22,0,0,1,3.25-1.07c1.13-.18,2.26-.32,3.39-.49a37.93,37.93,0,0,1,3.91-.75c4.54-.21,9-1.7,13.25-3.36a66.68,66.68,0,0,0,12.56-6.35,40.82,40.82,0,0,0,4.16-3.37,18.2,18.2,0,0,1,2.85-1.67c1.28-.74,2.55-1.51,3.81-2.29,18.06-11.27,33.6-27.34,40.25-47.93a76.26,76.26,0,0,0,3.2-15.46C603.72,744.63,600.72,744.65,600.52,746.55Z"/><g id="Face"><path class="cls-8" d="M440.08,710c-7.93,2.65-11.14,19.74-10.18,30.82.32,3.76,1.35,7.78,4.32,10.1,3.45,2.7,8.48,2.24,12.5.49A23.37,23.37,0,0,0,455,714.57C451.68,710.83,444.5,708.5,440.08,710Z"/><path d="M439.68,708.53c-6.59,2.33-9.1,10.72-10.31,16.87a57.87,57.87,0,0,0-1.13,11.89c0,4.11.39,8.66,2.7,12.19,5.66,8.62,17.6,4.18,23.59-1.57a25,25,0,0,0,6.63-25c-1.39-4.65-4.11-9.34-8.32-12-3.73-2.32-8.85-3.73-13.16-2.38-1.83.58-1.05,3.48.8,2.9,3.2-1,6.92,0,9.8,1.47a16.39,16.39,0,0,1,7.13,8.36,21.94,21.94,0,0,1-3.11,22.49,21.49,21.49,0,0,1-9.21,6.67c-3.55,1.25-8,1.5-10.77-1.46-2.58-2.74-2.95-7-3.06-10.57a54.31,54.31,0,0,1,.64-10.19,38.81,38.81,0,0,1,3-10.62c1.16-2.44,2.85-5.21,5.54-6.15C442.29,710.79,441.51,707.89,439.68,708.53Z"/><path class="cls-8" d="M537.71,701.43c-6.53,8.54-4.9,21.81,1.17,30.75,2.52,3.7,6.19,7,10.63,7.52,6.84.86,13.09-5.27,14.41-12S562.75,714,559.38,708c-1.87-3.33-4.1-6.58-7.26-8.72s-7.73-3.44-10.84-1.24A22.35,22.35,0,0,0,537.71,701.43Z"/><path d="M536.41,700.68c-4.78,6.37-5.29,15-3.27,22.46,2,7.27,6.82,15.78,14.66,17.75s15.2-4.32,17.27-11.61c2.48-8.69-1.61-18.51-6.56-25.58-2.71-3.86-6.47-7.24-11.24-8.13a9.16,9.16,0,0,0-6.28.83,16.46,16.46,0,0,0-4.35,4c-1.18,1.5.93,3.64,2.13,2.12,1.91-2.41,4.24-4.55,7.53-4,3.62.54,6.67,2.95,8.87,5.76a40,40,0,0,1,5.62,10.15,24.72,24.72,0,0,1,1.86,11.82c-.75,6.19-6.15,12.89-12.95,12.05s-11.32-8.45-13.24-14.44c-2.3-7.16-2.11-15.39,2.54-21.59C540.16,700.64,537.56,699.15,536.41,700.68Z"/><path d="M458,739c.82-3.9.69-8.22-1.45-11.41s-6.45-4.83-9.85-3.07-5,6.41-5.11,10.52a14.3,14.3,0,0,0,2.09,8.52,7.8,7.8,0,0,0,7.41,3C453.21,746.34,457.71,740.42,458,739Z"/><path d="M459.45,739.41c1-5.15.7-11.37-3.74-14.9-4-3.19-9.6-2.82-12.76,1.33-3,3.95-3.53,9.93-2.28,14.62a10.2,10.2,0,0,0,4.38,6.37,9.16,9.16,0,0,0,6.83,1.09c1.9-.61,3.44-2.44,4.66-3.92,1.08-1.31,2.48-2.9,2.91-4.59.47-1.87-2.42-2.67-2.9-.8-.08.35.09-.1-.08.25s-.24.45-.37.67a20.94,20.94,0,0,1-1.21,1.75,17.51,17.51,0,0,1-3.06,3.26,3.93,3.93,0,0,1-3.57.38,6.11,6.11,0,0,1-4.21-3.76,15.48,15.48,0,0,1,.24-11.75c1.55-3.38,5-5.2,8.44-3.3,4.42,2.41,4.71,8.11,3.82,12.5C456.17,740.5,459.07,741.31,459.45,739.41Z"/><path d="M537.6,724a17.66,17.66,0,0,1-.94-5.47,7.19,7.19,0,0,1,1.91-5.08c2-2,5.43-2,7.94-.69a14.86,14.86,0,0,1,5.68,6.19,17.55,17.55,0,0,1,2.5,7.52,8.76,8.76,0,0,1-2.79,7.19c-3.11,2.61-8.88,2.53-11.14-.85C539.45,730.85,538.3,726.21,537.6,724Z"/><path d="M539,723.58c-1-3.44-1.93-9.59,3.08-10.22,4.11-.51,7,3.14,8.77,6.32,2,3.47,3.57,8.19,1,11.8a6.82,6.82,0,0,1-8.55,1.7c-1.44-.85-2-2.44-2.55-3.95-.65-1.86-1.15-3.77-1.74-5.65s-3.46-1.06-2.89.8c.66,2.11,1.2,4.26,2,6.34a9.32,9.32,0,0,0,3.46,4.92,9.9,9.9,0,0,0,12-1.6c3.87-4.29,2.7-10.4.26-15.07-2.26-4.34-6-8.87-11.4-8.64a7.31,7.31,0,0,0-6.5,4.21c-1.42,3.12-.83,6.68.14,9.84C536.71,726.22,539.61,725.43,539,723.58Z"/><path d="M491.2,751.24l-.53,2.64a1.6,1.6,0,0,0,.16,1.15,1.5,1.5,0,0,0,2.05.54,1.52,1.52,0,0,0,.69-.9l.52-2.63a1.61,1.61,0,0,0-.15-1.16,1.53,1.53,0,0,0-.89-.69,1.51,1.51,0,0,0-1.16.15,1.55,1.55,0,0,0-.69.9Z"/><path d="M546.2,676.54a30.87,30.87,0,0,1,20.7,11.37c1.21,1.51,3.32-.63,2.12-2.12a33.79,33.79,0,0,0-22.82-12.25c-1.92-.19-1.91,2.81,0,3Z"/><path d="M417.83,713.28a35,35,0,0,1,17.49-15.5,1.55,1.55,0,0,0,1.05-1.84,1.51,1.51,0,0,0-1.85-1.05,38.21,38.21,0,0,0-19.28,16.87c-.94,1.69,1.65,3.21,2.59,1.52Z"/></g></g><g id="Shadow"><path class="cls-2" d="M558.57,808.58a10.92,10.92,0,0,1-1.32,1.32q4.21-2.52,8.16-5.32C563.19,806,560.9,807.31,558.57,808.58Z"/><path class="cls-2" d="M394,710c-15,54,4,82,33.19,103.75,2.85,2.13,5,2.52,8.31,3.75,3.66,4.22,18,9,26.89,7.74,2.25.5,4.44.94,6.59,1.34,12.52,4.92,35.52,4.92,45.88.37,3.31-.69,4.3-.43,7.64-1.45,7.89.1,32.76-14.59,38.5-19.5C470,849,378,803,394,710Z"/><path d="M600.52,746.55a72,72,0,0,1-9.79,29.37,88.55,88.55,0,0,1-20.27,23,115.62,115.62,0,0,1-13.16,9.24c-1.06.65-2.13,1.28-3.2,1.89a11.8,11.8,0,0,0-2.93,1.9,19.62,19.62,0,0,1-3.9,3.07,65.11,65.11,0,0,1-12.64,6.23,55.58,55.58,0,0,1-6.46,2,38.64,38.64,0,0,1-5.67.77c-1.3.12-2.61.67-3.92.86a28.48,28.48,0,0,0-4.12.64c-1.85.58-3.59,1.31-5.5,1.76a68.39,68.39,0,0,1-14.42,1.55,84.93,84.93,0,0,1-15.36-1.1,56,56,0,0,1-7-1.61c-1.08-.33-2.15-.8-3.25-1.05-1.71-.4-3.45-.68-5.17-1a12.82,12.82,0,0,0-3.5-.08,31.24,31.24,0,0,1-4-.13,43.45,43.45,0,0,1-7.33-1.38c-4-1.07-8.74-2.53-11.83-5.42a6.33,6.33,0,0,0-.84-.8,11,11,0,0,0-2-.75,42.91,42.91,0,0,1-3.94-1.7,57.58,57.58,0,0,1-6.28-3.72,69.46,69.46,0,0,1-10.38-8.59c-13.08-13.08-21.35-30.93-23.65-49.24-2.42-19.37,1.91-39.21,13.16-55.28a106.75,106.75,0,0,1,11.62-13.59,111.29,111.29,0,0,1,12.83-11.23,97.4,97.4,0,0,1,26.78-14.05,137.41,137.41,0,0,1,28.38-6,237.17,237.17,0,0,1,33.26-1.85c12.76.31,25.62,2.3,37.46,7.23a70.35,70.35,0,0,1,25.56,18.24c13.61,15.28,20.83,35.83,21.83,56.11a100.18,100.18,0,0,1-.38,14.8c-.19,1.92,2.81,1.91,3,0,2.1-20.95-2.44-42.9-13.41-60.95a78.41,78.41,0,0,0-20.79-22.82c-10-7.24-21.87-11.56-34-13.72-12.6-2.26-25.35-2.19-38.08-1.33a218.86,218.86,0,0,0-30.19,3.77,102.9,102.9,0,0,0-55.31,30.61c-7.8,8-14.55,16.93-19,27.29a81.6,81.6,0,0,0-6.43,29.18,89.84,89.84,0,0,0,16.43,54.63,77.71,77.71,0,0,0,19.83,19.5,57.5,57.5,0,0,0,6.66,3.88c1.18.56,2.38,1.06,3.6,1.54l.94.36c-.06,0,1.17.52.7.21a11.91,11.91,0,0,1,.91.84c3.54,2.94,8.28,4.59,12.66,5.77a48.93,48.93,0,0,0,7.78,1.46,35.12,35.12,0,0,0,3.7.18,16.82,16.82,0,0,1,3.82,0c1.69.36,3.5.53,5.15,1,1.14.33,2.24.81,3.39,1.14a58.92,58.92,0,0,0,7.09,1.55c10.07,1.6,20.88,1.74,30.85-.6,1-.24,2-.51,3-.83a24.22,24.22,0,0,1,3.25-1.07c1.13-.18,2.26-.32,3.39-.49a37.93,37.93,0,0,1,3.91-.75c4.54-.21,9-1.7,13.25-3.36a66.68,66.68,0,0,0,12.56-6.35,40.82,40.82,0,0,0,4.16-3.37,18.2,18.2,0,0,1,2.85-1.67c1.28-.74,2.55-1.51,3.81-2.29,18.06-11.27,33.6-27.34,40.25-47.93a76.26,76.26,0,0,0,3.2-15.46C603.72,744.63,600.72,744.65,600.52,746.55Z"/><path d="M459,824.24c3.84-.5,4.64-4.21,4-8-.06-.33.5-.35.6,0,1.87,6,7.66,11.1,13.9,11.27"/><path d="M508.83,828.59c4.15-2.48,8.49-6,10.23-11.31a.35.35,0,0,1,.7.08c.37,2.5-.64,5,1.24,6,2.51,1.35,9,0,9,0"/><path d="M543.05,817.92a36.58,36.58,0,0,0,13-17.47.62.62,0,0,1,1.2,0c.52,1.82-1.87,5.51.74,6.53s6.21-2.82,8.5-4.28"/><path d="M426.15,812.31c4.85,1.69,3.16-3.29,4.14-6a.49.49,0,0,1,.93.06C432.34,812.39,438,818,443,822"/></g></svg>